<svg width="155" height="26" viewBox="0 0 155 26" fill="none" xmlns="http://www.w3.org/2000/svg">
<g clip-path="url(#clip0_311_63)">
<path d="M12.0944 1.48345C12.5527 0.394838 14.1137 0.39484 14.572 1.48345L17.2771 7.90864C17.4704 8.36757 17.9073 8.68114 18.4088 8.72086L25.4301 9.27696C26.6197 9.37119 27.1021 10.8378 26.1957 11.6049L20.8462 16.1319C20.4642 16.4553 20.2972 16.9627 20.414 17.4461L22.0483 24.215C22.3252 25.3618 21.0624 26.2683 20.0439 25.6538L14.0326 22.0264C13.6032 21.7673 13.0632 21.7673 12.6338 22.0264L6.62253 25.6538C5.60403 26.2683 4.34115 25.3618 4.61806 24.215L6.25244 17.4461C6.36918 16.9627 6.20231 16.4553 5.82022 16.1319L0.470627 11.6049C-0.435746 10.8378 0.0466351 9.37119 1.23627 9.27696L8.25768 8.72086C8.75921 8.68114 9.19609 8.36757 9.3893 7.90864L12.0944 1.48345Z" fill="#EE6C4D"/>
<path d="M44.0944 1.48345C44.5527 0.394838 46.1137 0.39484 46.572 1.48345L49.2771 7.90864C49.4704 8.36757 49.9073 8.68114 50.4088 8.72086L57.4301 9.27696C58.6197 9.37119 59.1021 10.8378 58.1957 11.6049L52.8462 16.1319C52.4642 16.4553 52.2972 16.9627 52.414 17.4461L54.0483 24.215C54.3252 25.3618 53.0624 26.2683 52.0439 25.6538L46.0326 22.0264C45.6032 21.7673 45.0632 21.7673 44.6338 22.0264L38.6225 25.6538C37.604 26.2683 36.3412 25.3618 36.6181 24.215L38.2524 17.4461C38.3692 16.9627 38.2023 16.4553 37.8202 16.1319L32.4706 11.6049C31.5643 10.8378 32.0466 9.37119 33.2363 9.27696L40.2577 8.72086C40.7592 8.68114 41.1961 8.36757 41.3893 7.90864L44.0944 1.48345Z" fill="#EE6C4D"/>
<path d="M76.0943 1.48345C76.5526 0.394838 78.1136 0.39484 78.5719 1.48345L81.2769 7.90864C81.4703 8.36757 81.9072 8.68114 82.4086 8.72086L89.43 9.27696C90.6196 9.37119 91.102 10.8378 90.1956 11.6049L84.8461 16.1319C84.4641 16.4553 84.2971 16.9627 84.4138 17.4461L86.0482 24.215C86.3251 25.3618 85.0623 26.2683 84.0438 25.6538L78.0325 22.0264C77.6031 21.7673 77.0631 21.7673 76.6337 22.0264L70.6224 25.6538C69.6039 26.2683 68.341 25.3618 68.6179 24.215L70.2523 17.4461C70.3691 16.9627 70.2022 16.4553 69.8201 16.1319L64.4705 11.6049C63.5641 10.8378 64.0465 9.37119 65.2361 9.27696L72.2576 8.72086C72.7591 8.68114 73.196 8.36757 73.3892 7.90864L76.0943 1.48345Z" fill="#EE6C4D"/>
<path d="M108.094 1.48345C108.553 0.394838 110.114 0.39484 110.572 1.48345L113.277 7.90864C113.47 8.36757 113.907 8.68114 114.409 8.72086L121.43 9.27696C122.62 9.37119 123.102 10.8378 122.196 11.6049L116.846 16.1319C116.464 16.4553 116.297 16.9627 116.414 17.4461L118.048 24.215C118.325 25.3618 117.062 26.2683 116.044 25.6538L110.032 22.0264C109.603 21.7673 109.063 21.7673 108.634 22.0264L102.622 25.6538C101.604 26.2683 100.341 25.3618 100.618 24.215L102.252 17.4461C102.369 16.9627 102.202 16.4553 101.82 16.1319L96.4705 11.6049C95.5641 10.8378 96.0465 9.37119 97.2361 9.27696L104.258 8.72086C104.759 8.68114 105.196 8.36757 105.389 7.90864L108.094 1.48345Z" fill="#EE6C4D"/>
<path d="M140.094 1.48345C140.552 0.394838 142.113 0.39484 142.572 1.48345L145.277 7.90864C145.47 8.36757 145.907 8.68114 146.408 8.72086L153.43 9.27696C154.619 9.37119 155.102 10.8378 154.195 11.6049L148.846 16.1319C148.464 16.4553 148.297 16.9627 148.414 17.4461L150.048 24.215C150.325 25.3618 149.062 26.2683 148.044 25.6538L142.032 22.0264C141.603 21.7673 141.063 21.7673 140.633 22.0264L134.622 25.6538C133.604 26.2683 132.341 25.3618 132.618 24.215L134.252 17.4461C134.369 16.9627 134.202 16.4553 133.82 16.1319L128.47 11.6049C127.564 10.8378 128.046 9.37119 129.236 9.27696L136.257 8.72086C136.759 8.68114 137.196 8.36757 137.389 7.90864L140.094 1.48345Z" fill="#EE6C4D"/>
</g>
<defs>
<clipPath id="clip0_311_63">
<rect width="154.666" height="25.1852" fill="white" transform="translate(-0.00012207 0.666992)"/>
</clipPath>
</defs>
</svg>
